<?xml version="1.0" encoding="UTF-8"?>
<!DOCTYPE svg PUBLIC "-//W3C//DTD SVG 1.1//EN" "http://www.w3.org/Graphics/SVG/1.1/DTD/svg11.dtd">
<svg xmlns="http://www.w3.org/2000/svg" version="1.1" width="75px" height="75px" style="shape-rendering:geometricPrecision; text-rendering:geometricPrecision; image-rendering:optimizeQuality; fill-rule:evenodd; clip-rule:evenodd" xmlns:xlink="http://www.w3.org/1999/xlink">
<g><path style="opacity:0.799" fill="#ff0000" d="M 49.5,8.5 C 51.7157,9.20261 53.549,10.5359 55,12.5C 59.5,18.3333 64,24.1667 68.5,30C 60.9549,34.3864 56.2882,40.8864 54.5,49.5C 44.7291,49.384 35.0625,47.884 25.5,45C 26.4061,43.3005 26.7394,41.4672 26.5,39.5C 35.8721,41.1179 45.2055,42.6179 54.5,44C 45.8968,40.6976 37.5635,36.8642 29.5,32.5C 30.2485,30.6675 31.2485,29.0009 32.5,27.5C 40.4257,31.1903 48.4257,34.357 56.5,37C 49.8333,31.6667 43.1667,26.3333 36.5,21C 38,19.5 39.5,18 41,16.5C 47.6667,21.8333 54.3333,27.1667 61,32.5C 61.6667,31.8333 61.6667,31.1667 61,30.5C 55.7997,24.5877 50.9664,18.421 46.5,12C 47.5442,10.8261 48.5442,9.65944 49.5,8.5 Z"/></g>
<g><path style="opacity:0.91" fill="#000000" d="M 14.5,46.5 C 16.5,46.5 18.5,46.5 20.5,46.5C 20.5,51.5 20.5,56.5 20.5,61.5C 33.5,61.5 46.5,61.5 59.5,61.5C 59.5,56.5 59.5,51.5 59.5,46.5C 61.5,46.5 63.5,46.5 65.5,46.5C 65.5,53.5 65.5,60.5 65.5,67.5C 48.5,67.5 31.5,67.5 14.5,67.5C 14.5,60.5 14.5,53.5 14.5,46.5 Z"/></g>
<g><path style="opacity:0.842" fill="#fe0000" d="M 25.5,51.5 C 35.1667,51.5 44.8333,51.5 54.5,51.5C 54.5,53.5 54.5,55.5 54.5,57.5C 44.8333,57.5 35.1667,57.5 25.5,57.5C 25.5,55.5 25.5,53.5 25.5,51.5 Z"/></g>
</svg>
